# Blender v2.90.1 OBJ File: 'corner road sign.blend'
# www.blender.org
mtllib corner road sign.mtl
o path815
v -0.000000 2.208138 0.000000
v 1.914779 -1.104069 -0.000000
v -1.914779 -1.104069 -0.000000
v -0.000000 2.208138 -0.123350
v 1.914779 -1.104069 -0.123354
v -1.914779 -1.104069 -0.123354
vt 0.947116 0.000000
vt 0.947116 1.000000
vt 0.473788 0.500000
vt 0.473788 0.000000
vt 0.473788 0.999030
vt 0.000000 0.500485
vt 1.000000 0.000000
vt 1.000000 0.999030
vt 0.982373 0.999030
vt 0.982372 0.000000
vt 0.964744 0.000000
vt 0.964744 1.000000
vt 0.947116 1.000000
vt 0.947116 0.000000
vt 0.982372 0.000000
vt 0.982372 0.999030
vt 0.964744 0.999030
vt 0.964745 0.000000
vn 0.0000 -0.0000 1.0000
vn 0.0000 0.0000 -1.0000
vn -0.8657 0.5005 0.0000
vn 0.0000 -1.0000 0.0000
vn 0.8657 0.5005 0.0000
g path815_path815_Material.001
usemtl Material.001
s off
f 3/1/1 2/2/1 1/3/1
f 6/4/2 4/5/2 5/6/2
f 3/7/3 1/8/3 4/9/3 6/10/3
f 2/11/4 3/12/4 6/13/4 5/14/4
f 1/15/5 2/16/5 5/17/5 4/18/5
