# Blender v2.92.0 OBJ File: 'track 7.blend'
# www.blender.org
mtllib track 7_ice patches.mtl
o Plane_Plane.001
v 99.179672 7.940420 -81.277466
v 84.675789 12.600060 -47.781010
v 47.674816 12.600060 -105.886475
v 25.408773 12.600060 -47.781002
v 63.758881 16.274286 3.856964
v 85.332893 13.467335 -66.253197
v 34.032421 12.600060 -95.629562
v 18.130695 12.600060 -28.204453
v 78.069962 13.412283 -1.029594
v 83.037086 12.600060 -28.204458
v 73.042412 12.600060 -100.432938
v 18.130695 12.600060 -67.357552
v 39.665703 8.499743 -6.969791
v 90.684402 11.974342 -73.796463
v 27.918966 12.600060 -86.934097
v 23.423653 12.600060 -18.416178
v 89.118195 13.412283 -8.627911
v 81.460541 12.600060 -37.992733
v 61.066460 12.600060 -99.420731
v 22.229336 12.600060 -57.569279
v 41.149376 8.921305 -10.932983
v 68.324249 13.412283 1.191845
v 18.130695 12.600060 -37.992729
v 36.597313 12.600060 -102.019531
v 86.638000 13.020512 -57.569283
v 88.004723 13.412283 -21.312971
v 82.882446 17.086180 -102.128235
v 18.130692 12.600060 -77.145828
v 28.717489 12.600060 -8.627903
v 85.373657 9.863108 -76.887146
v 87.542404 10.976974 -81.965569
v 29.709347 10.781269 -21.815416
v 33.308830 10.781269 -15.159996
v 74.129196 10.781269 -38.571949
v 77.753273 10.781269 -49.604839
v 59.720100 10.781269 -92.135498
v 47.234329 10.781269 -98.163864
v 28.934656 10.781269 -60.057331
v 33.345295 10.781269 -46.478661
v 37.587936 10.781269 -21.801762
v 63.972626 10.781269 -4.542290
v 65.667854 10.781269 -5.531910
v 75.147896 10.781269 -7.692795
v 25.276657 10.781269 -35.627167
v 25.276657 10.781269 -30.012796
v 42.019054 10.781269 -96.343315
v 40.355167 10.781269 -92.198036
v 79.385254 10.781269 -57.745811
v 77.862717 10.781269 -67.876480
v 81.058060 10.781269 -18.729403
v 76.251038 10.781269 -25.398081
v 82.545326 12.819293 -93.808853
v 74.417755 12.065311 -93.377739
v 25.276653 10.781269 -74.185875
v 25.276657 10.781269 -68.793274
v 35.005325 10.781269 -14.903057
v 33.409134 10.781269 -82.318344
v 81.635208 10.781269 -12.154381
vt 0.242996 0.423142
vt 0.161854 0.312830
vt 0.171660 0.261176
vt 0.240967 0.191511
vt 0.297245 0.134951
vt 0.318739 0.134789
vt 0.338729 0.201612
vt 0.696189 0.077067
vt 0.715491 0.088372
vt 0.829321 0.120559
vt 0.902007 0.170028
vt 0.883363 0.229771
vt 0.812082 0.284886
vt 0.762750 0.403336
vt 0.788439 0.509547
vt 0.794465 0.586566
vt 0.757883 0.677796
vt 0.835670 0.770365
vt 0.867429 0.828892
vt 0.770421 0.922523
vt 0.670606 0.907945
vt 0.490445 0.877438
vt 0.325023 0.916694
vt 0.263505 0.893175
vt 0.250104 0.852877
vt 0.181191 0.752964
vt 0.094508 0.667585
vt 0.103926 0.617971
vt 0.164564 0.542346
vt 0.906892 0.748837
vt 1.000000 0.828508
vt 0.168238 0.152239
vt 0.251007 0.069054
vt 0.854022 0.407685
vt 0.876813 0.501915
vt 0.493734 0.946374
vt 0.316311 0.988478
vt 0.085038 0.510912
vt 0.141577 0.424983
vt 0.402598 0.106073
vt 0.706128 0.000000
vt 0.759192 0.030192
vt 0.876212 0.063281
vt 0.068385 0.325480
vt 0.085481 0.235424
vt 0.185643 0.938522
vt 0.164985 0.876402
vt 0.884059 0.594518
vt 0.852701 0.672719
vt 0.964031 0.262792
vt 0.890676 0.319676
vt 0.757945 1.000000
vt 0.640534 0.971232
vt 0.000000 0.685704
vt 0.017096 0.595648
vt 0.391274 0.067647
vt 0.104332 0.788465
vt 1.000000 0.147529
vn -0.0014 1.0000 0.0080
vn 0.0881 0.9841 -0.1540
vn 0.2170 0.9691 -0.1173
vn -0.2343 0.9691 -0.0770
vn -0.1072 0.9691 0.2221
vn 0.2346 0.9691 -0.0762
vn -0.0297 0.9832 -0.1802
vn -0.0768 0.9384 -0.3369
vn 0.2467 0.9691 0.0000
vn 0.2289 0.9691 0.0919
vn -0.3243 0.9433 0.0711
vn -0.2593 0.9571 0.1296
vn -0.2334 0.9236 0.3042
vn 0.3044 0.9521 0.0290
vn -0.2303 0.9213 -0.3132
vn 0.2018 0.9691 0.1419
vn -0.1958 0.9384 -0.2847
vn -0.2435 0.9691 0.0392
vn -0.0338 0.9862 0.1619
vn 0.2275 0.9691 -0.0953
vn 0.2166 0.9690 0.1187
vn 0.1138 0.8674 -0.4844
vn 0.1979 0.9691 0.1472
vn 0.0813 0.9691 0.2329
vn -0.2709 0.9621 -0.0318
vn -0.3442 0.9384 0.0302
vn 0.0755 0.9590 0.2731
vn 0.1744 0.9691 0.1744
usemtl None
s off
f 39/1/1 44/2/1 45/3/1 32/4/1 33/5/1 56/6/1 40/7/1 41/8/1 42/9/1 43/10/1 58/11/1 50/12/1 51/13/1 34/14/1 35/15/1 48/16/1 49/17/1 30/18/1 31/19/1 52/20/1 53/21/1 36/22/1 37/23/1 46/24/1 47/25/1 57/26/1 54/27/1 55/28/1 38/29/1
f 31/19/2 30/18/2 14/30/2 1/31/2
f 33/5/3 32/4/3 16/32/3 29/33/3
f 35/15/4 34/14/4 18/34/4 2/35/4
f 37/23/5 36/22/5 19/36/5 3/37/5
f 39/1/6 38/29/6 20/38/6 4/39/6
f 41/8/7 40/7/7 21/40/7 5/41/7
f 43/10/8 42/9/8 22/42/8 9/43/8
f 45/3/9 44/2/9 23/44/9 8/45/9
f 47/25/10 46/24/10 24/46/10 7/47/10
f 49/17/11 48/16/11 25/48/11 6/49/11
f 51/13/12 50/12/12 26/50/12 10/51/12
f 53/21/13 52/20/13 27/52/13 11/53/13
f 55/28/9 54/27/9 28/54/9 12/55/9
f 56/6/14 33/5/14 29/33/14 13/56/14
f 30/18/15 49/17/15 6/49/15 14/30/15
f 57/26/16 47/25/16 7/47/16 15/57/16
f 32/4/3 45/3/3 8/45/3 16/32/3
f 58/11/17 43/10/17 9/43/17 17/58/17
f 34/14/18 51/13/18 10/51/18 18/34/18
f 36/22/19 53/21/19 11/53/19 19/36/19
f 38/29/20 55/28/20 12/55/20 20/38/20
f 40/7/21 56/6/21 13/56/21 21/40/21
f 42/9/22 41/8/22 5/41/22 22/42/22
f 44/2/23 39/1/23 4/39/23 23/44/23
f 46/24/24 37/23/24 3/37/24 24/46/24
f 48/16/25 35/15/25 2/35/25 25/48/25
f 50/12/26 58/11/26 17/58/26 26/50/26
f 52/20/27 31/19/27 1/31/27 27/52/27
f 54/27/28 57/26/28 15/57/28 28/54/28
o Plane.001_Plane.002
v 43.120415 5.642485 -191.970795
v -6.186999 6.941335 -197.267639
v -37.263721 4.904660 -177.410202
v 25.711576 6.941335 -193.169006
v 40.315022 6.941335 -159.330780
v -23.645330 9.481419 -202.196365
v 14.676772 6.941335 -196.243301
v -22.516129 6.941335 -153.305237
v 51.904144 5.642481 -165.384216
v 3.825309 6.941335 -193.762146
v -41.930183 1.719860 -182.462570
v -10.565272 6.941335 -141.479919
v 9.173812 6.941335 -142.346466
v -35.053356 6.941335 -167.691727
v -12.978129 6.941335 -200.582703
v 34.101177 6.941335 -191.069794
v 35.467899 6.941335 -154.813492
v -32.112709 10.191422 -207.543671
v 40.774052 3.691931 -169.896698
v 36.731720 3.691931 -182.132019
v 3.292064 3.691931 -184.249603
v -9.719552 3.691931 -188.805206
v -29.459389 5.659093 -182.452621
v -28.879656 3.691931 -176.877808
v -6.970105 3.691931 -150.800934
v -15.836868 3.691931 -159.574554
v 33.423592 3.691931 -181.802750
v 23.371714 3.691931 -184.317886
v 30.264307 3.691931 -162.477493
v 34.980450 3.691931 -166.872726
v -27.729851 6.099562 -197.037888
v 14.455207 3.691931 -186.802032
v -26.637991 3.691931 -171.968857
v -16.560719 3.691931 -192.144684
v 6.923791 3.691931 -151.410873
vt 0.941617 0.145704
vt 0.950529 0.258596
vt 1.000000 0.047350
vt 0.633260 0.876020
vt 0.598445 1.000000
vt 1.000000 0.852915
vt 0.818058 0.808330
vt 0.739352 0.460497
vt 0.896705 0.445704
vt 0.919716 0.335412
vt 0.769256 0.317165
vt 0.600232 0.128165
vt 0.556715 0.000000
vt 0.491765 0.058815
vt 0.511008 0.145992
vt 0.274433 0.316930
vt 0.151410 0.261873
vt 0.000000 0.409876
vt 0.162097 0.426739
vt 0.801533 0.775073
vt 0.955392 0.762288
vt 0.961079 0.671664
vt 0.808346 0.666494
vt 0.477383 0.784004
vt 0.371911 0.853925
vt 0.461572 0.894018
vt 0.564621 0.823014
vt 0.842832 0.114714
vt 0.800295 0.239783
vt 0.973639 0.551798
vt 0.818495 0.569637
vt 0.438960 0.179513
vt 0.342382 0.102368
vt 0.218964 0.568072
vt 0.080791 0.610668
vn 0.2633 0.9185 -0.2950
vn -0.1979 0.9780 0.0654
vn -0.1105 0.9424 0.3157
vn -0.1282 0.9905 -0.0502
vn 0.2353 0.9424 -0.2378
vn -0.0812 0.9424 0.3245
vn -0.2281 0.9424 -0.2447
vn 0.0614 0.8830 0.4653
vn -0.0898 0.9424 0.3222
vn 0.2522 0.9424 -0.2198
vn -0.0836 0.9514 -0.2962
vn 0.0746 0.9424 0.3261
vn -0.1537 0.9776 0.1440
vn 0.2103 0.9575 -0.1973
vn -0.1467 0.9424 0.3006
vn 0.1298 0.9435 0.3048
vn 0.0163 0.9998 0.0086
vn -0.1433 0.9424 -0.3023
vn -0.0147 0.9424 -0.3342
usemtl None
s off
f 64/59/29 73/60/29 76/61/29
f 77/62/30 67/63/30 59/64/30 78/65/30
f 79/66/31 68/67/31 60/68/31 80/69/31
f 81/70/32 69/71/32 61/72/32 82/73/32
f 84/74/33 66/75/33 70/76/33 83/77/33
f 85/78/34 74/79/34 62/80/34 86/81/34
f 87/82/35 75/83/35 63/84/35 88/85/35
f 73/60/36 64/59/36 89/86/36 92/87/36
f 86/81/37 62/80/37 65/88/37 90/89/37
f 91/90/38 72/91/38 66/75/38 84/74/38
f 88/85/39 63/84/39 67/63/39 77/62/39
f 90/89/40 65/88/40 68/67/40 79/66/40
f 89/86/41 64/59/41 69/71/41 81/70/41
f 82/73/42 61/72/42 72/91/42 91/90/42
f 80/69/43 60/68/43 73/60/43 92/87/43
f 78/65/44 59/64/44 74/79/44 85/78/44
f 77/62/45 78/65/45 85/78/45 86/81/45 90/89/45 79/66/45 80/69/45 92/87/45 89/86/45 81/70/45 82/73/45 91/90/45 84/74/45 83/77/45 93/92/45 87/82/45 88/85/45
f 93/92/46 71/93/46 75/83/46 87/82/46
f 83/77/47 70/76/47 71/93/47 93/92/47
