<?xml version="1.0" encoding="UTF-8" standalone="no"?>
<!-- Created with Inkscape (http://www.inkscape.org/) -->

<svg
   width="48"
   height="48"
   viewBox="0 0 12.7 12.7"
   version="1.1"
   id="svg5"
   inkscape:version="1.1.2 (b8e25be833, 2022-02-05)"
   sodipodi:docname="first.svg"
   xmlns:inkscape="http://www.inkscape.org/namespaces/inkscape"
   xmlns:sodipodi="http://sodipodi.sourceforge.net/DTD/sodipodi-0.dtd"
   xmlns="http://www.w3.org/2000/svg"
   xmlns:svg="http://www.w3.org/2000/svg">
  <sodipodi:namedview
     id="namedview7"
     pagecolor="#505050"
     bordercolor="#eeeeee"
     borderopacity="1"
     inkscape:pageshadow="0"
     inkscape:pageopacity="0"
     inkscape:pagecheckerboard="0"
     inkscape:document-units="mm"
     showgrid="false"
     units="px"
     inkscape:snap-center="true"
     inkscape:zoom="9.4929293"
     inkscape:cx="19.698872"
     inkscape:cy="27.336135"
     inkscape:current-layer="g3326" />
  <defs
     id="defs2">
    <inkscape:path-effect
       effect="powerclip"
       id="path-effect3317"
       is_visible="true"
       lpeversion="1"
       inverse="true"
       flatten="false"
       hide_clip="false"
       message="Jeśli po konwersji przycięcia na ścieżki nie zostanie spłaszczony wynik, użyj reguły wypełniania w oknie dialogowym &lt;b&gt;wypełnienie i obrys&lt;/b&gt; ." />
    <filter
       id="mask-powermask-path-effect2941_inverse"
       inkscape:label="filtermask-powermask-path-effect2941"
       style="color-interpolation-filters:sRGB"
       height="100"
       width="100"
       x="-50"
       y="-50">
      <feColorMatrix
         id="mask-powermask-path-effect2941_primitive1"
         values="1"
         type="saturate"
         result="fbSourceGraphic" />
      <feColorMatrix
         id="mask-powermask-path-effect2941_primitive2"
         values="-1 0 0 0 1 0 -1 0 0 1 0 0 -1 0 1 0 0 0 1 0 "
         in="fbSourceGraphic" />
    </filter>
    <clipPath
       clipPathUnits="userSpaceOnUse"
       id="clipPath3313">
      <path
         id="path3315"
         style="display:none;fill:#ffffff;fill-rule:evenodd;stroke-width:1.05833;stroke-linejoin:bevel;paint-order:stroke markers fill"
         d="M 10.861262,6.3500008 A 4.5112615,4.5112615 0 0 1 6.35,10.861261 4.5112615,4.5112615 0 0 1 1.838738,6.3500008 4.5112615,4.5112615 0 0 1 6.35,1.8387389 4.5112615,4.5112615 0 0 1 10.861262,6.3500008 Z" />
      <path
         id="lpe_path-effect3317"
         style="fill:#ffffff;fill-rule:evenodd;stroke-width:1.05833;stroke-linejoin:bevel;paint-order:stroke markers fill"
         class="powerclip"
         d="m -6.5875,-6.5875 h 25.875 v 25.875 H -6.5875 Z M 10.861262,6.3500008 A 4.5112615,4.5112615 0 0 0 6.35,1.8387389 4.5112615,4.5112615 0 0 0 1.838738,6.3500008 4.5112615,4.5112615 0 0 0 6.35,10.861261 4.5112615,4.5112615 0 0 0 10.861262,6.3500008 Z" />
    </clipPath>
  </defs>
  <g
     inkscape:label="Warstwa 1"
     inkscape:groupmode="layer"
     id="layer1">
    <g
       id="g3326"
       inkscape:export-filename="C:\Users\User\Game With Car\Assets\Sprites\Track UI\point first.png"
       inkscape:export-xdpi="96"
       inkscape:export-ydpi="96">
      <g
         id="g2935"
         clip-path="url(#clipPath3313)"
         inkscape:path-effect="#path-effect3317">
        <path
           id="path846"
           style="fill:#f7ffbd;fill-rule:evenodd;stroke-width:4;stroke-linejoin:bevel;paint-order:stroke markers fill"
           d="M 0.73733986,11.96266 A 7.9375,7.9375 0 0 1 -1.3170362,4.2956237 7.9375,7.9375 0 0 1 4.295624,-1.3170362 7.9375,7.9375 0 0 1 11.96266,0.73733993 L 6.35,6.35 Z"
           inkscape:original-d="M 0.73733986,11.96266 A 7.9375,7.9375 0 0 1 -1.3170362,4.2956237 7.9375,7.9375 0 0 1 4.295624,-1.3170362 7.9375,7.9375 0 0 1 11.96266,0.73733993 L 6.35,6.35 Z" />
        <path
           id="path2020"
           style="fill:#dae58b;fill-rule:evenodd;stroke-width:4;stroke-linejoin:bevel;paint-order:stroke markers fill"
           d="M 11.96266,0.73733993 A 7.9375,7.9375 0 0 1 14.017036,8.4043762 7.9375,7.9375 0 0 1 8.4043759,14.017036 7.9375,7.9375 0 0 1 0.73733986,11.96266 L 6.35,6.35 Z"
           inkscape:original-d="M 11.96266,0.73733993 A 7.9375,7.9375 0 0 1 14.017036,8.4043762 7.9375,7.9375 0 0 1 8.4043759,14.017036 7.9375,7.9375 0 0 1 0.73733986,11.96266 L 6.35,6.35 Z" />
        <path
           id="path2300"
           style="fill:none;fill-rule:evenodd;stroke:#000000;stroke-width:0.529166;stroke-linejoin:bevel;paint-order:stroke markers fill"
           d="M 14.022917,6.3499999 A 7.6729169,7.6729169 0 0 1 6.3499999,14.022917 7.6729169,7.6729169 0 0 1 -1.322917,6.3499999 7.6729169,7.6729169 0 0 1 6.3499999,-1.322917 7.6729169,7.6729169 0 0 1 14.022917,6.3499999 Z"
           inkscape:original-d="M 14.022917,6.3499999 A 7.6729169,7.6729169 0 0 1 6.3499999,14.022917 7.6729169,7.6729169 0 0 1 -1.322917,6.3499999 7.6729169,7.6729169 0 0 1 6.3499999,-1.322917 7.6729169,7.6729169 0 0 1 14.022917,6.3499999 Z" />
        <path
           id="circle2448"
           style="fill:none;fill-rule:evenodd;stroke:#000000;stroke-width:0.529167;stroke-linejoin:bevel;paint-order:stroke markers fill"
           d="M 11.126239,6.3499999 A 4.7762389,4.7762389 0 0 1 6.3499999,11.126239 4.7762389,4.7762389 0 0 1 1.573761,6.3499999 4.7762389,4.7762389 0 0 1 6.3499999,1.573761 4.7762389,4.7762389 0 0 1 11.126239,6.3499999 Z"
           inkscape:original-d="M 11.126239,6.3499999 A 4.7762389,4.7762389 0 0 1 6.3499999,11.126239 4.7762389,4.7762389 0 0 1 1.573761,6.3499999 4.7762389,4.7762389 0 0 1 6.3499999,1.573761 4.7762389,4.7762389 0 0 1 11.126239,6.3499999 Z" />
      </g>
    </g>
  </g>
</svg>
