<?xml version="1.0" encoding="UTF-8" standalone="no"?>
<svg
   xmlns:dc="http://purl.org/dc/elements/1.1/"
   xmlns:cc="http://creativecommons.org/ns#"
   xmlns:rdf="http://www.w3.org/1999/02/22-rdf-syntax-ns#"
   xmlns:svg="http://www.w3.org/2000/svg"
   xmlns="http://www.w3.org/2000/svg"
   xmlns:sodipodi="http://sodipodi.sourceforge.net/DTD/sodipodi-0.dtd"
   xmlns:inkscape="http://www.inkscape.org/namespaces/inkscape"
   width="600"
   height="600"
   viewBox="0 0 158.75 158.75"
   version="1.1"
   id="svg8"
   inkscape:version="1.0.2-2 (e86c870879, 2021-01-15)"
   sodipodi:docname="minimap 3.svg"
   inkscape:export-filename="C:\Users\User\learning and possibly a game\Assets\Sprites\Minimaps\minimap3.png"
   inkscape:export-xdpi="96"
   inkscape:export-ydpi="96">
  <defs
     id="defs2" />
  <sodipodi:namedview
     id="base"
     pagecolor="#ffffff"
     bordercolor="#000000"
     borderopacity="1"
     inkscape:pageopacity="0.0"
     inkscape:pageshadow="2"
     inkscape:zoom="1.6027753"
     inkscape:cx="353.13699"
     inkscape:cy="333.40671"
     inkscape:document-units="px"
     inkscape:current-layer="layer1"
     showgrid="false"
     units="px"
     borderlayer="true"
     inkscape:pagecheckerboard="true"
     inkscape:window-width="1600"
     inkscape:window-height="877"
     inkscape:window-x="-8"
     inkscape:window-y="-8"
     inkscape:window-maximized="1"
     inkscape:document-rotation="0" />
  <metadata
     id="metadata5">
    <rdf:RDF>
      <cc:Work
         rdf:about="">
        <dc:format>image/svg+xml</dc:format>
        <dc:type
           rdf:resource="http://purl.org/dc/dcmitype/StillImage" />
        <dc:title></dc:title>
      </cc:Work>
    </rdf:RDF>
  </metadata>
  <g
     inkscape:label="Layer 1"
     inkscape:groupmode="layer"
     id="layer1"
     transform="translate(0,-138.24999)">
    <path
       style="fill:none;stroke:#ffffff;stroke-width:6.61458;stroke-linecap:butt;stroke-linejoin:miter;stroke-miterlimit:4;stroke-dasharray:none;stroke-opacity:0.741206"
       d="m 88.148302,192.27235 c -0.14637,2.65084 -1.580698,5.19231 -3.425789,7.66245 -3.530501,4.7265 -10.672533,11.092 -14.308487,9.92008 -8.784524,-2.83139 -13.98596,-16.85622 -18.520903,-18.96041 -3.542886,-1.64388 -13.735503,0.74898 -15.393013,4.50248 -1.875061,4.24615 0.336022,7.84243 -1.891809,12.67552 -2.227835,4.83309 -10.904949,11.38151 -8.352644,18.1864 2.552304,6.80489 10.665523,16.5661 16.246386,17.11446 7.653985,0.75204 16.470893,-7.46161 27.007633,-9.45999 10.53674,-1.99837 18.913215,7.27993 26.329545,2.6063 7.416329,-4.67363 5.625339,-8.40072 7.899819,-22.8121 1.62545,-10.29905 2.67885,-18.93568 -3.67064,-22.49398 -11.66164,-6.53526 -32.513218,2.20482 -30.604378,-12.26298 1.851154,-14.03058 13.603986,-12.98045 18.207407,0.58165 0.472527,1.39211 0.297711,5.19842 0.297711,5.19842"
       id="path4529"
       inkscape:connector-curvature="0"
       sodipodi:nodetypes="csssszzszzssssc" />
    <path
       style="fill:none;stroke:#ff0101;stroke-width:2.64583325;stroke-linecap:round;stroke-linejoin:miter;stroke-miterlimit:4;stroke-dasharray:none;stroke-opacity:1"
       d="M 104.33686,230.71041 97.265539,229.276"
       id="path4531"
       inkscape:connector-curvature="0" />
    <path
       inkscape:connector-curvature="0"
       id="path4533"
       d="m 65.637025,178.51882 7.183345,0.67885"
       style="fill:none;fill-opacity:1;stroke:#6c6c6c;stroke-width:2.64583325;stroke-linecap:round;stroke-linejoin:miter;stroke-miterlimit:4;stroke-dasharray:none;stroke-opacity:1" />
    <path
       style="fill:none;fill-opacity:1;stroke:#6c6c6c;stroke-width:2.64583;stroke-linecap:round;stroke-linejoin:miter;stroke-miterlimit:4;stroke-dasharray:none;stroke-opacity:1"
       d="m 39.809913,197.19917 -6.269637,-3.57113"
       id="path4535"
       inkscape:connector-curvature="0" />
    <path
       style="opacity:1;fill:none;fill-opacity:1;fill-rule:nonzero;stroke:#181818;stroke-width:6.61458349;stroke-linecap:round;stroke-linejoin:round;stroke-miterlimit:4;stroke-dasharray:none;stroke-dashoffset:0;stroke-opacity:0.6130653;paint-order:normal"
       id="path4559"
       sodipodi:type="arc"
       sodipodi:cx="167.97061"
       sodipodi:cy="-98.055176"
       sodipodi:rx="18.530031"
       sodipodi:ry="18.530031"
       sodipodi:start="0"
       sodipodi:end="4.7528717"
       sodipodi:open="true"
       d="m 186.50064,-98.055176 a 18.530031,18.530031 0 0 1 -11.61251,17.190406 18.530031,18.530031 0 0 1 -20.28274,-4.355578 18.530031,18.530031 0 0 1 -3.53114,-20.442402 18.530031,18.530031 0 0 1 17.6463,-10.90728"
       transform="rotate(96.430774)" />
  </g>
</svg>
