<?xml version="1.0" encoding="UTF-8" standalone="no"?>
<svg
   xmlns:dc="http://purl.org/dc/elements/1.1/"
   xmlns:cc="http://creativecommons.org/ns#"
   xmlns:rdf="http://www.w3.org/1999/02/22-rdf-syntax-ns#"
   xmlns:svg="http://www.w3.org/2000/svg"
   xmlns="http://www.w3.org/2000/svg"
   xmlns:sodipodi="http://sodipodi.sourceforge.net/DTD/sodipodi-0.dtd"
   xmlns:inkscape="http://www.inkscape.org/namespaces/inkscape"
   width="600"
   height="600"
   viewBox="0 0 158.75 158.75"
   version="1.1"
   id="svg8"
   inkscape:version="1.0.2-2 (e86c870879, 2021-01-15)"
   sodipodi:docname="minimap 1.svg"
   inkscape:export-filename="C:\Users\User\learning and possibly a game\Assets\Sprites\Minimaps\minimap.png"
   inkscape:export-xdpi="96"
   inkscape:export-ydpi="96">
  <defs
     id="defs2" />
  <sodipodi:namedview
     id="base"
     pagecolor="#ffffff"
     bordercolor="#000000"
     borderopacity="1"
     inkscape:pageopacity="0.0"
     inkscape:pageshadow="2"
     inkscape:zoom="0.56666667"
     inkscape:cx="208.8705"
     inkscape:cy="240.19745"
     inkscape:document-units="px"
     inkscape:current-layer="layer1"
     showgrid="false"
     units="px"
     borderlayer="true"
     inkscape:pagecheckerboard="true"
     inkscape:window-width="1600"
     inkscape:window-height="877"
     inkscape:window-x="-8"
     inkscape:window-y="-8"
     inkscape:window-maximized="1"
     inkscape:document-rotation="0" />
  <metadata
     id="metadata5">
    <rdf:RDF>
      <cc:Work
         rdf:about="">
        <dc:format>image/svg+xml</dc:format>
        <dc:type
           rdf:resource="http://purl.org/dc/dcmitype/StillImage" />
        <dc:title></dc:title>
      </cc:Work>
    </rdf:RDF>
  </metadata>
  <g
     inkscape:label="Layer 1"
     inkscape:groupmode="layer"
     id="layer1"
     transform="translate(0,-138.24999)">
    <path
       style="fill:none;stroke:#ffffff;stroke-width:6.61458;stroke-linecap:butt;stroke-linejoin:miter;stroke-miterlimit:4;stroke-dasharray:none;stroke-opacity:0.741206"
       d="m 95.827917,218.91798 c -1.666895,-3.54084 -2.14544,-5.74566 -4.164911,-9.46521 -3.7257,-6.86217 -9.155768,-14.77515 -13.333385,-19.83617 -6.442048,-7.8043 -19.292617,-25.5841 -24.868226,-28.25448 -5.575609,-2.67038 -15.450192,-3.28213 -17.950209,0.70111 -1.317932,2.09985 -0.326865,13.58475 -0.336323,25.35147 -0.0085,10.55386 -0.301141,21.47927 1.736654,23.64595 1.304433,1.38694 4.134087,1.94156 6.381948,1.02724 5.178947,-2.10655 11.018629,-8.89579 16.120579,-8.35305 7.316391,0.7783 8.44138,3.63414 9.455441,7.58684 1.014061,3.9527 1.456372,9.95365 -5.136031,12.13971 -6.592403,2.18606 -10.834192,3.04695 -12.781612,4.3185 -2.114049,1.38035 -4.792006,5.43098 -11.493529,10.76195 -4.156237,3.30622 -10.420699,3.85185 -12.582564,6.97526 -5.258599,7.59752 1.545605,21.38048 8.680307,24.78369 3.133265,1.49455 7.970435,2.83031 12.957768,4.10555 6.450404,1.64933 10.084337,3.42755 13.757806,0.44997 4.993784,-4.04779 8.745824,-1.52602 15.544941,-5.56653 6.799117,-4.04051 20.164838,-19.81974 26.443939,-19.14567 6.2791,0.67407 20.35497,-12.7154 14.6834,-20.7956 -5.67156,-8.08019 -19.538015,-2.83014 -23.115993,-10.43053 z"
       id="path4529"
       inkscape:connector-curvature="0"
       sodipodi:nodetypes="ssszssssszzsssssszzzs" />
    <path
       style="fill:none;stroke:#ff0101;stroke-width:2.64583333;stroke-linecap:round;stroke-linejoin:miter;stroke-miterlimit:4;stroke-dasharray:none;stroke-opacity:1"
       d="m 91.961149,219.38852 6.309735,-3.49979"
       id="path4531"
       inkscape:connector-curvature="0" />
    <path
       inkscape:connector-curvature="0"
       id="path4533"
       d="m 43.565865,207.95857 2.831001,6.63677"
       style="fill:none;stroke:#6c6c6c;stroke-width:2.64583325;stroke-linecap:round;stroke-linejoin:miter;stroke-miterlimit:4;stroke-dasharray:none;stroke-opacity:1;fill-opacity:1" />
    <path
       style="fill:none;fill-opacity:1;stroke:#6c6c6c;stroke-width:2.64583325;stroke-linecap:round;stroke-linejoin:miter;stroke-miterlimit:4;stroke-dasharray:none;stroke-opacity:1"
       d="m 37.673786,267.94576 -3.671049,6.21165"
       id="path4535"
       inkscape:connector-curvature="0" />
  </g>
</svg>
