<?xml version="1.0" encoding="UTF-8" standalone="no"?>
<!-- Created with Inkscape (http://www.inkscape.org/) -->

<svg
   xmlns:dc="http://purl.org/dc/elements/1.1/"
   xmlns:cc="http://creativecommons.org/ns#"
   xmlns:rdf="http://www.w3.org/1999/02/22-rdf-syntax-ns#"
   xmlns:svg="http://www.w3.org/2000/svg"
   xmlns="http://www.w3.org/2000/svg"
   xmlns:sodipodi="http://sodipodi.sourceforge.net/DTD/sodipodi-0.dtd"
   xmlns:inkscape="http://www.inkscape.org/namespaces/inkscape"
   width="600"
   height="600"
   viewBox="0 0 158.75 158.75"
   version="1.1"
   id="svg8"
   inkscape:version="0.92.4 (5da689c313, 2019-01-14)"
   sodipodi:docname="minimap 11.svg"
   inkscape:export-filename="C:\Users\User\learning and possibly a game\Assets\Sprites\Minimaps\minimap11.png"
   inkscape:export-xdpi="96"
   inkscape:export-ydpi="96">
  <defs
     id="defs2" />
  <sodipodi:namedview
     id="base"
     pagecolor="#ffffff"
     bordercolor="#000000"
     borderopacity="1"
     inkscape:pageopacity="0.0"
     inkscape:pageshadow="2"
     inkscape:zoom="1"
     inkscape:cx="268.96918"
     inkscape:cy="286.37881"
     inkscape:document-units="px"
     inkscape:current-layer="layer1"
     showgrid="false"
     units="px"
     borderlayer="true"
     inkscape:pagecheckerboard="true"
     inkscape:window-width="1600"
     inkscape:window-height="877"
     inkscape:window-x="-8"
     inkscape:window-y="-8"
     inkscape:window-maximized="1" />
  <metadata
     id="metadata5">
    <rdf:RDF>
      <cc:Work
         rdf:about="">
        <dc:format>image/svg+xml</dc:format>
        <dc:type
           rdf:resource="http://purl.org/dc/dcmitype/StillImage" />
        <dc:title></dc:title>
      </cc:Work>
    </rdf:RDF>
  </metadata>
  <g
     inkscape:label="Layer 1"
     inkscape:groupmode="layer"
     id="layer1"
     transform="translate(0,-138.24999)">
    <path
       sodipodi:nodetypes="csszssssssssssssccsssccssssc"
       inkscape:connector-curvature="0"
       id="path828"
       d="m 94.60242,213.33879 c -4.034896,3.37344 -11.142664,4.48316 -18.364824,0.48893 -5.941883,-3.28617 -6.019674,-12.10845 -6.539776,-14.27916 -0.527842,-2.20302 3.921322,-31.16762 11.09351,-34.49023 7.172188,-3.32261 13.727783,1.61429 16.278528,6.46851 6.752102,12.84965 -5.145511,19.22303 -2.137646,34.86835 1.387295,7.21598 25.217798,17.25151 28.055248,25.41768 0.0665,0.19129 0.93896,15.27569 -7.85512,17.40413 -8.32957,2.016 -24.505782,-12.55737 -32.467578,-19.46669 -6.750085,-5.85779 -15.921735,-5.9701 -22.671974,-14.29568 -1.508826,-1.86095 -1.229371,-9.18549 -1.195849,-14.59138 0.05293,-8.53652 -2.382223,-13.96801 -4.089112,-15.72545 -12.551764,-12.92354 -17.766929,-1.24952 -18.940092,1.07373 -3.142799,6.22377 -4.168152,37.73641 -6.007288,41.23842 -2.995087,5.70311 -7.017134,8.36938 -10.520689,8.04238 -15.2686512,-1.42506 -5.291518,-11.8184 -3.340419,-12.25466 3.702489,-0.82787 5.101275,-0.43138 10.572661,2.24946 m 6.81302,2.91042 c 18.631797,9.59039 46.104655,26.94838 47.33031,28.17086 2.707996,2.70097 7.705328,0.4163 9.283519,3.08454 5.988116,10.12409 4.645898,16.95661 9.612147,19.52513 15.737254,8.13925 24.929394,-33.03588 32.574804,-37.57761 m 6.36102,-5.23849 c 3.12733,-0.78298 6.06217,-3.53225 7.60136,-2.73827 7.40919,3.82196 1.01683,12.379 -1.47289,12.33273 -4.3054,-0.08 -9.96773,-1.51499 -10.96228,-14.61341 -0.42928,-5.65367 3.81749,-7.71457 2.4745,-14.93894 -2.12198,-11.41485 -20.93203,-19.92155 -34.13431,-8.29276"
       style="opacity:1;fill:none;stroke:#ffffff;stroke-width:6.61458349;stroke-linecap:butt;stroke-linejoin:miter;stroke-miterlimit:4;stroke-dasharray:none;stroke-opacity:0.74120603" />
    <path
       style="fill:none;stroke:#ff0101;stroke-width:2.64583325;stroke-linecap:round;stroke-linejoin:miter;stroke-miterlimit:4;stroke-dasharray:none;stroke-opacity:1"
       d="m 111.45083,225.35601 3.48221,-6.31943"
       id="path4531"
       inkscape:connector-curvature="0" />
    <path
       inkscape:connector-curvature="0"
       id="path4533"
       d="m 152.92461,240.07061 -7.21313,0.17849"
       style="fill:none;fill-opacity:1;stroke:#6c6c6c;stroke-width:2.64583325;stroke-linecap:round;stroke-linejoin:miter;stroke-miterlimit:4;stroke-dasharray:none;stroke-opacity:1" />
    <path
       style="fill:none;fill-opacity:1;stroke:#6c6c6c;stroke-width:2.64583325;stroke-linecap:round;stroke-linejoin:miter;stroke-miterlimit:4;stroke-dasharray:none;stroke-opacity:1"
       d="m 26.625737,225.61991 6.659283,2.77764"
       id="path4535"
       inkscape:connector-curvature="0" />
  </g>
</svg>
