<?xml version="1.0" encoding="UTF-8" standalone="no"?>
<svg
   xmlns:dc="http://purl.org/dc/elements/1.1/"
   xmlns:cc="http://creativecommons.org/ns#"
   xmlns:rdf="http://www.w3.org/1999/02/22-rdf-syntax-ns#"
   xmlns:svg="http://www.w3.org/2000/svg"
   xmlns="http://www.w3.org/2000/svg"
   xmlns:sodipodi="http://sodipodi.sourceforge.net/DTD/sodipodi-0.dtd"
   xmlns:inkscape="http://www.inkscape.org/namespaces/inkscape"
   width="600"
   height="600"
   viewBox="0 0 158.75 158.75"
   version="1.1"
   id="svg8"
   inkscape:version="1.0.2-2 (e86c870879, 2021-01-15)"
   sodipodi:docname="minimap 14.svg"
   inkscape:export-filename="C:\Users\User\learning and possibly a game\Assets\Sprites\Minimaps\minimap14.png"
   inkscape:export-xdpi="96"
   inkscape:export-ydpi="96">
  <defs
     id="defs2" />
  <sodipodi:namedview
     id="base"
     pagecolor="#ffffff"
     bordercolor="#000000"
     borderopacity="1"
     inkscape:pageopacity="0.0"
     inkscape:pageshadow="2"
     inkscape:zoom="1"
     inkscape:cx="245.22135"
     inkscape:cy="301.76509"
     inkscape:document-units="px"
     inkscape:current-layer="layer1"
     showgrid="false"
     units="px"
     borderlayer="true"
     inkscape:pagecheckerboard="true"
     inkscape:window-width="1600"
     inkscape:window-height="877"
     inkscape:window-x="-8"
     inkscape:window-y="-8"
     inkscape:window-maximized="1"
     inkscape:document-rotation="0" />
  <metadata
     id="metadata5">
    <rdf:RDF>
      <cc:Work
         rdf:about="">
        <dc:format>image/svg+xml</dc:format>
        <dc:type
           rdf:resource="http://purl.org/dc/dcmitype/StillImage" />
        <dc:title></dc:title>
      </cc:Work>
    </rdf:RDF>
  </metadata>
  <g
     inkscape:label="Layer 1"
     inkscape:groupmode="layer"
     id="layer1"
     transform="translate(0,-138.24999)">
    <path
       style="fill:none;stroke:#ffffff;stroke-width:6.61458;stroke-linecap:butt;stroke-linejoin:miter;stroke-miterlimit:4;stroke-dasharray:none;stroke-opacity:0.741176"
       d="m 75.66104,184.8969 c 5.551264,0.43 0,0 6.213808,0.83486 m 8.699623,1.12253 c 3.369472,0.54599 8.374111,2.61836 8.708081,3.63091 0.526229,1.59545 0.579718,3.1922 0.623289,5.40267 m 0.467719,7.67064 c 0.21724,4.17647 0.42049,9.82736 0.96421,11.2844 0.5917,1.58561 5.1535,5.42039 8.82075,7.86909 4.73177,3.1595 9.02972,4.71504 12.43946,3.5213 6.0524,-2.11894 7.04411,-3.59373 5.42397,-12.17084 -1.62015,-8.57711 -12.08026,-14.69849 -15.56892,-14.75911 m -7.76418,-0.0935 c -6.599968,0.50753 -14.044057,1.32621 -16.470453,-1.28417 -2.426397,-2.61039 -5.455181,-21.59431 1.6574,-24.50405 4.464287,-1.82633 14.177693,0.33644 17.376353,5.32289 3.19866,4.98646 1.09387,15.62242 1.42311,26.35426"
       id="path1389"
       inkscape:connector-curvature="0"
       sodipodi:nodetypes="cccsccssszcczszc" />
    <path
       style="fill:none;stroke:#ff0101;stroke-width:2.64583;stroke-linecap:round;stroke-linejoin:miter;stroke-miterlimit:4;stroke-dasharray:none;stroke-opacity:1"
       d="m 89.013795,190.13312 1.25077,-7.10609"
       id="path4531"
       inkscape:connector-curvature="0" />
    <path
       inkscape:connector-curvature="0"
       id="path4533"
       d="M 91.210018,195.28491 86.847434,201.032"
       style="fill:none;fill-opacity:1;stroke:#6c6c6c;stroke-width:2.64583;stroke-linecap:round;stroke-linejoin:miter;stroke-miterlimit:4;stroke-dasharray:none;stroke-opacity:1" />
    <path
       style="fill:#ffffff;stroke:none;stroke-width:0.264583px;stroke-linecap:butt;stroke-linejoin:miter;stroke-opacity:1;fill-opacity:0.74117649"
       d="m 104.37812,230.85416 v 9.92187 H 89.693749 L 78.184374,239.32082 H 66.542707 l -11.509374,1.45521 v -49.60937 l 12.964583,-2.38125 v -8.46667 L 55.165624,177.67291 H 40.481249 v 73.68645 h 14.684375 l 11.509375,1.45521 h 12.303125 l 10.630105,-1.50336 24.427191,-0.0841 v -20.37291 z"
       id="path1446"
       sodipodi:nodetypes="ccccccccccccccccccc" />
    <path
       style="fill:none;fill-opacity:1;stroke:#6c6c6c;stroke-width:2.64583;stroke-linecap:round;stroke-linejoin:miter;stroke-miterlimit:4;stroke-dasharray:none;stroke-opacity:1"
       d="m 89.51117,242.23209 0.0777,7.21494"
       id="path4535"
       inkscape:connector-curvature="0" />
  </g>
</svg>
