<?xml version="1.0" encoding="UTF-8" standalone="no"?>
<svg
   xmlns:dc="http://purl.org/dc/elements/1.1/"
   xmlns:cc="http://creativecommons.org/ns#"
   xmlns:rdf="http://www.w3.org/1999/02/22-rdf-syntax-ns#"
   xmlns:svg="http://www.w3.org/2000/svg"
   xmlns="http://www.w3.org/2000/svg"
   xmlns:sodipodi="http://sodipodi.sourceforge.net/DTD/sodipodi-0.dtd"
   xmlns:inkscape="http://www.inkscape.org/namespaces/inkscape"
   width="600"
   height="600"
   viewBox="0 0 158.75 158.75"
   version="1.1"
   id="svg8"
   inkscape:version="1.0.2-2 (e86c870879, 2021-01-15)"
   sodipodi:docname="minimap 12.svg"
   inkscape:export-filename="C:\Users\User\learning and possibly a game\Assets\Sprites\Minimaps\minimap12.png"
   inkscape:export-xdpi="96"
   inkscape:export-ydpi="96">
  <defs
     id="defs2" />
  <sodipodi:namedview
     id="base"
     pagecolor="#ffffff"
     bordercolor="#000000"
     borderopacity="1"
     inkscape:pageopacity="0.0"
     inkscape:pageshadow="2"
     inkscape:zoom="0.70710678"
     inkscape:cx="319.95507"
     inkscape:cy="121.27841"
     inkscape:document-units="px"
     inkscape:current-layer="layer1"
     showgrid="false"
     units="px"
     borderlayer="true"
     inkscape:pagecheckerboard="true"
     inkscape:window-width="1600"
     inkscape:window-height="877"
     inkscape:window-x="-8"
     inkscape:window-y="-8"
     inkscape:window-maximized="1"
     inkscape:document-rotation="0"
     inkscape:snap-global="true" />
  <metadata
     id="metadata5">
    <rdf:RDF>
      <cc:Work
         rdf:about="">
        <dc:format>image/svg+xml</dc:format>
        <dc:type
           rdf:resource="http://purl.org/dc/dcmitype/StillImage" />
        <dc:title></dc:title>
      </cc:Work>
    </rdf:RDF>
  </metadata>
  <g
     inkscape:label="Layer 1"
     inkscape:groupmode="layer"
     id="layer1"
     transform="translate(0,-138.24999)">
    <path
       style="fill:none;stroke:#ffffff;stroke-width:6.61458;stroke-linecap:butt;stroke-linejoin:miter;stroke-miterlimit:4;stroke-dasharray:none;stroke-opacity:0.741176"
       d="m 82.382284,273.3685 c 0.04953,3.98445 -0.313463,12.56369 7.277419,13.57732 7.590882,1.01362 16.199757,-11.69451 17.059547,-18.13198 0.85978,-6.43746 -1.38155,-15.49201 -2.83154,-17.49323 -1.45,-2.00121 -6.110171,-4.60058 -9.867573,-4.70539 m -16.683617,1.24852 c -7.598117,0.44928 -17.434904,0.58337 -19.886517,-1.78263 -5.313629,-5.12808 -4.607991,-20.29698 -2.237534,-24.49101 1.736005,-3.0715 5.01248,-4.46152 8.486379,-10.04514 4.800684,-7.71617 9.980585,-15.14287 10.967071,-20.83801 1.837232,-10.60663 0.42798,-11.65268 0.430693,-14.5144 m -2.024592,-7.55542 c -0.194837,-3.1073 0.02085,-5.85066 1.983363,-8.28559 3.386555,-4.20175 8.832769,-7.83223 15.961283,-8.21093 5.202975,-0.27641 13.688604,2.44586 19.551784,5.26774 6.29403,3.02925 7.39529,8.51033 7.10499,10.93799 -0.54218,4.53413 -5.28758,7.00786 -8.59896,8.33437 -3.31139,1.32652 -15.908312,-3.0647 -17.528648,-2.05051"
       id="path1391"
       inkscape:connector-curvature="0"
       sodipodi:nodetypes="czzzccssssccsssszc" />
    <path
       style="fill:none;stroke:#ffffff;stroke-width:6.61458;stroke-linecap:butt;stroke-linejoin:miter;stroke-miterlimit:4;stroke-dasharray:none;stroke-opacity:0.741176"
       d="m 57.569983,172.48772 c 9.086151,0.0321 20.095904,-0.34784 23.620576,0.46455 3.524672,0.81243 8.377386,2.92788 8.674229,8.14687 0.296842,5.21899 -4.768232,8.08536 -7.843956,10.99351 -3.075724,2.90815 -2.63192,14.12002 -2.267691,23.00541 0.364229,8.88539 10.056138,25.7273 10.312032,28.93317 0.212274,2.6594 -0.175871,13.21856 -0.682153,14.3122 -0.104032,0.22473 -0.392242,-0.93575 -0.483021,-1.55627 -0.532563,-3.64032 -4.661018,-24.4355 -6.956661,-23.41286 -2.295644,1.02264 0.195228,22.331 0.245748,33.431"
       id="path1389"
       inkscape:connector-curvature="0"
       sodipodi:nodetypes="czzzzssszc" />
    <path
       style="fill:none;stroke:#ff0101;stroke-width:2.64583325;stroke-linecap:round;stroke-linejoin:miter;stroke-miterlimit:4;stroke-dasharray:none;stroke-opacity:1"
       d="m 96.470695,178.67388 0.359886,-7.20635"
       id="path4531"
       inkscape:connector-curvature="0" />
    <path
       inkscape:connector-curvature="0"
       id="path4533"
       d="m 110.30498,261.57686 -7.19275,0.57057"
       style="fill:none;fill-opacity:1;stroke:#6c6c6c;stroke-width:2.64583325;stroke-linecap:round;stroke-linejoin:miter;stroke-miterlimit:4;stroke-dasharray:none;stroke-opacity:1" />
    <path
       style="fill:none;fill-opacity:1;stroke:#6c6c6c;stroke-width:2.64583325;stroke-linecap:round;stroke-linejoin:miter;stroke-miterlimit:4;stroke-dasharray:none;stroke-opacity:1"
       d="m 87.532806,246.62677 7.214935,-0.0777"
       id="path4535"
       inkscape:connector-curvature="0" />
  </g>
</svg>
