<?xml version="1.0" encoding="UTF-8" standalone="no"?>
<!-- Created with Inkscape (http://www.inkscape.org/) -->

<svg
   xmlns:dc="http://purl.org/dc/elements/1.1/"
   xmlns:cc="http://creativecommons.org/ns#"
   xmlns:rdf="http://www.w3.org/1999/02/22-rdf-syntax-ns#"
   xmlns:svg="http://www.w3.org/2000/svg"
   xmlns="http://www.w3.org/2000/svg"
   xmlns:sodipodi="http://sodipodi.sourceforge.net/DTD/sodipodi-0.dtd"
   xmlns:inkscape="http://www.inkscape.org/namespaces/inkscape"
   width="600"
   height="600"
   viewBox="0 0 158.75 158.75"
   version="1.1"
   id="svg8"
   inkscape:version="0.92.4 (5da689c313, 2019-01-14)"
   sodipodi:docname="minimap 10.svg"
   inkscape:export-filename="C:\Users\User\learning and possibly a game\Assets\Sprites\Minimaps\minimap10.png"
   inkscape:export-xdpi="96"
   inkscape:export-ydpi="96">
  <defs
     id="defs2" />
  <sodipodi:namedview
     id="base"
     pagecolor="#ffffff"
     bordercolor="#000000"
     borderopacity="1"
     inkscape:pageopacity="0.0"
     inkscape:pageshadow="2"
     inkscape:zoom="2"
     inkscape:cx="327.17051"
     inkscape:cy="271.92326"
     inkscape:document-units="px"
     inkscape:current-layer="layer1"
     showgrid="false"
     units="px"
     borderlayer="true"
     inkscape:pagecheckerboard="true"
     inkscape:window-width="1600"
     inkscape:window-height="877"
     inkscape:window-x="-8"
     inkscape:window-y="-8"
     inkscape:window-maximized="1" />
  <metadata
     id="metadata5">
    <rdf:RDF>
      <cc:Work
         rdf:about="">
        <dc:format>image/svg+xml</dc:format>
        <dc:type
           rdf:resource="http://purl.org/dc/dcmitype/StillImage" />
        <dc:title></dc:title>
      </cc:Work>
    </rdf:RDF>
  </metadata>
  <g
     inkscape:label="Layer 1"
     inkscape:groupmode="layer"
     id="layer1"
     transform="translate(0,-138.24999)">
    <path
       style="opacity:1;fill:none;stroke:#ffffff;stroke-width:6.61458349;stroke-linecap:butt;stroke-linejoin:miter;stroke-miterlimit:4;stroke-dasharray:none;stroke-opacity:0.74120603"
       d="m 82.915865,227.89956 c -5.245541,11.55661 -6.282944,10.63705 -16.245483,6.70699 -3.266391,-1.28854 -14.642824,7.96704 -16.395724,7.73308 -8.361015,-1.11597 -9.168716,-5.20033 -10.404161,-6.86248 -1.017814,-1.36936 2.721558,-5.60831 0.726931,-12.31002 -0.862423,-2.89764 -6.167184,-6.99438 -5.821092,-9.76573 0.830056,-6.64671 9.542095,-7.05218 11.218712,-5.56988 2.339599,2.06843 4.339401,7.58002 7.089796,12.57159 1.25053,2.26953 7.916579,-1.11739 16.487149,0.97115 8.57057,2.08855 7.777014,-0.37613 11.769716,-0.0437"
       id="path4529"
       inkscape:connector-curvature="0"
       sodipodi:nodetypes="cssssssszc" />
    <path
       style="fill:none;fill-opacity:1;stroke:#6c6c6c;stroke-width:2.64583325;stroke-linecap:round;stroke-linejoin:miter;stroke-miterlimit:4;stroke-dasharray:none;stroke-opacity:1"
       d="m 57.632184,217.40359 0.535155,7.19548"
       id="path4535"
       inkscape:connector-curvature="0" />
    <path
       sodipodi:nodetypes="czssszzssc"
       inkscape:connector-curvature="0"
       id="path828"
       d="m 83.640833,214.59288 c -0.607558,-4.42295 0.130293,-10.71192 -5.80061,-13.59153 -5.930903,-2.87961 -21.184047,10.28457 -22.178597,-2.81385 -0.429278,-5.65367 12.058997,-15.99326 19.943453,-14.89582 6.130816,0.85334 2.352795,1.73125 9.075466,5.97003 3.554477,2.24117 6.579488,-0.0117 11.674046,-0.56107 5.094559,-0.54932 3.672639,-4.11578 8.249239,-4.7246 4.5766,-0.60881 8.582,1.56482 10.85457,4.88101 1.95794,2.85707 -0.25072,12.87303 -6.37098,19.65481 -4.92303,5.45515 -7.12078,-2.42403 -19.172872,7.02914"
       style="opacity:1;fill:none;stroke:#ffffff;stroke-width:6.61458349;stroke-linecap:butt;stroke-linejoin:miter;stroke-miterlimit:4;stroke-dasharray:none;stroke-opacity:0.74120603" />
    <path
       style="opacity:1;fill:none;stroke:#ffffff;stroke-width:6.61458349;stroke-linecap:butt;stroke-linejoin:miter;stroke-miterlimit:4;stroke-dasharray:none;stroke-opacity:0.74120603"
       d="m 92.342403,221.72542 c 16.646047,0.18043 12.301827,1.00365 16.778337,-0.018 4.4765,-1.02166 13.07729,-15.24259 19.67113,-11.42458 6.13212,3.55067 5.28163,13.66719 0.60658,17.78342 -8.20849,7.22729 -16.38328,2.34283 -20.96803,4.31389 -5.02433,2.16004 -4.39745,4.70102 -7.61123,3.91297 -2.771381,-0.67957 -4.607851,-2.66826 -9.18485,-7.65523"
       id="path830"
       inkscape:connector-curvature="0"
       sodipodi:nodetypes="czssssc" />
    <path
       style="fill:none;stroke:#ff0101;stroke-width:2.64583325;stroke-linecap:round;stroke-linejoin:miter;stroke-miterlimit:4;stroke-dasharray:none;stroke-opacity:1"
       d="m 99.158727,214.09409 -0.244004,-7.21121"
       id="path4531"
       inkscape:connector-curvature="0" />
    <path
       inkscape:connector-curvature="0"
       id="path4533"
       d="m 101.39329,232.58732 0.33493,7.20757"
       style="fill:none;fill-opacity:1;stroke:#6c6c6c;stroke-width:2.64583325;stroke-linecap:round;stroke-linejoin:miter;stroke-miterlimit:4;stroke-dasharray:none;stroke-opacity:1" />
    <path
       style="fill:#ff7503;fill-opacity:0.69346732;stroke:none;stroke-width:0.26458332px;stroke-linecap:butt;stroke-linejoin:miter;stroke-opacity:1"
       d="m 80.147568,226.62131 5.409534,2.48529 1.578961,-0.58486 0.828434,-1.80319 -0.584852,-1.57895 -5.409534,-2.48529 -1.578961,0.58486 -0.828434,1.80319 z"
       id="path832"
       inkscape:connector-curvature="0"
       sodipodi:nodetypes="ccccccccc" />
    <path
       sodipodi:nodetypes="ccccccccc"
       inkscape:connector-curvature="0"
       id="path834"
       d="m 88.012488,218.5872 -0.03792,5.95301 1.183026,1.19818 1.984348,0.0126 1.19817,-1.18301 0.03792,-5.95301 -1.183026,-1.19818 -1.984348,-0.0126 z"
       style="fill:#ff7503;fill-opacity:0.69346732;stroke:none;stroke-width:0.26458332px;stroke-linecap:butt;stroke-linejoin:miter;stroke-opacity:1" />
    <path
       style="fill:#ff7503;fill-opacity:0.69346732;stroke:none;stroke-width:0.26458332px;stroke-linecap:butt;stroke-linejoin:miter;stroke-opacity:1"
       d="m 86.691583,214.07441 -5.889962,0.86493 -1.004998,1.35098 0.288351,1.96333 1.350969,1.00498 5.889962,-0.86493 1.004998,-1.35098 -0.288351,-1.96333 z"
       id="path836"
       inkscape:connector-curvature="0"
       sodipodi:nodetypes="ccccccccc" />
  </g>
</svg>
