# Blender v2.90.1 OBJ File: 'car.blend'
# www.blender.org
mtllib wing.mtl
o Cube.002_Cube.010
v -4.030959 -0.043571 1.100000
v -4.030959 -0.043571 0.900000
v -3.451403 0.111720 1.100000
v -3.451403 0.111720 0.900000
v -4.030959 -0.043571 -0.900000
v -4.030959 -0.043571 -1.100000
v -3.451403 0.111720 -0.900000
v -3.451403 0.111720 -1.100000
v -4.900000 1.800000 1.900000
v -4.900000 1.800000 -1.900000
v -5.000000 1.700000 2.000000
v -5.000000 2.300000 2.000000
v -5.000000 1.700000 -2.000000
v -5.000000 2.300000 -2.000000
v -3.000000 1.700000 2.000000
v -3.000000 1.944329 2.000000
v -3.000000 1.700000 -2.000000
v -3.000000 1.944329 -2.000000
v -4.900000 2.282217 -1.900000
v -3.000000 1.800000 -1.900000
v -3.000000 1.944329 -1.900000
v -4.900000 2.282217 1.900000
v -3.000000 1.944329 1.900000
v -3.000000 1.800000 1.900000
v -4.498147 1.700000 -1.100000
v -4.498147 1.700000 -0.900000
v -3.876981 1.700000 -1.100000
v -3.876981 1.700000 -0.900000
v -4.498147 1.700000 0.900000
v -4.498147 1.700000 1.100000
v -3.876981 1.700000 0.900000
v -3.876981 1.700000 1.100000
vt 0.375000 0.000000
vt 0.600635 0.000000
vt 0.600635 0.250000
vt 0.375000 0.250000
vt 0.580539 0.500000
vt 0.375000 0.500000
vt 0.580539 0.750000
vt 0.375000 0.750000
vt 0.600635 1.000000
vt 0.375000 1.000000
vt 0.125000 0.500000
vt 0.125000 0.750000
vt 0.375000 0.000000
vt 0.600635 0.000000
vt 0.600635 0.250000
vt 0.375000 0.250000
vt 0.580539 0.500000
vt 0.375000 0.500000
vt 0.580539 0.750000
vt 0.375000 0.750000
vt 0.600635 1.000000
vt 0.375000 1.000000
vt 0.125000 0.500000
vt 0.125000 0.750000
vt 0.375000 0.000000
vt 0.375000 0.250000
vt 0.435277 0.250000
vt 0.435277 0.000000
vt 0.375000 0.487500
vt 0.393041 0.487500
vt 0.375000 0.000000
vt 0.625000 0.000000
vt 0.625000 0.250000
vt 0.375000 0.250000
vt 0.625000 0.500000
vt 0.375000 0.500000
vt 0.625000 0.506250
vt 0.477321 0.506250
vt 0.477321 0.743750
vt 0.625000 0.743750
vt 0.625000 0.750000
vt 0.375000 0.750000
vt 0.625000 1.000000
vt 0.375000 1.000000
vt 0.375000 1.000000
vt 0.875000 0.500000
vt 0.875000 0.750000
vt 0.862500 0.743750
vt 0.862500 0.506250
vt 0.375000 0.762500
vt 0.435277 1.000000
vt 0.393041 0.762500
vn -0.9659 -0.2588 0.0000
vn 0.0000 0.0000 -1.0000
vn 0.9659 0.2588 0.0000
vn 0.0000 0.0000 1.0000
vn 0.2588 -0.9659 0.0000
vn 1.0000 0.0000 0.0000
vn -1.0000 0.0000 0.0000
vn 0.0000 1.0000 0.0000
vn 0.1751 0.9846 0.0000
vn 0.0000 -1.0000 0.0000
usemtl None
s off
f 1/1/1 30/2/1 29/3/1 2/4/1
f 2/4/2 29/3/2 31/5/2 4/6/2
f 4/6/3 31/5/3 32/7/3 3/8/3
f 3/8/4 32/7/4 30/9/4 1/10/4
f 2/11/5 4/6/5 3/8/5 1/12/5
f 5/13/1 26/14/1 25/15/1 6/16/1
f 6/16/2 25/15/2 27/17/2 8/18/2
f 8/18/3 27/17/3 28/19/3 7/20/3
f 7/20/4 28/19/4 26/21/4 5/22/4
f 6/23/5 8/18/5 7/20/5 5/24/5
f 9/25/6 10/26/6 19/27/6 22/28/6
f 10/26/4 20/29/4 21/30/4 19/27/4
f 11/31/7 12/32/7 14/33/7 13/34/7
f 13/34/2 14/33/2 18/35/2 17/36/2
f 17/36/6 18/35/6 21/37/6 20/38/6 24/39/6 23/40/6 16/41/6 15/42/6
f 15/42/4 16/41/4 12/43/4 11/44/4
f 10/26/8 9/45/8 24/39/8 20/29/8
f 18/35/9 14/46/9 12/47/9 16/41/9 23/40/9 22/48/9 19/49/9 21/37/9
f 24/50/2 9/45/2 22/51/2 23/52/2
f 13/34/10 17/36/10 15/42/10 11/44/10
